<?xml version="1.0" encoding="utf-8"?>
<!-- Generator: Adobe Illustrator 13.0.0, SVG Export Plug-In . SVG Version: 6.00 Build 14948)  -->
<!DOCTYPE svg PUBLIC "-//W3C//DTD SVG 1.1//EN" "http://www.w3.org/Graphics/SVG/1.1/DTD/svg11.dtd">
<svg version="1.1" id="Layer_1" xmlns="http://www.w3.org/2000/svg" xmlns:xlink="http://www.w3.org/1999/xlink" x="0px" y="0px"
	 width="80px" height="80px" viewBox="0 0 80 80" enable-background="new 0 0 80 80" xml:space="preserve">
<polygon points="9.5,59.5 9.5,49.5 19.5,49.5 19.5,39.5 29.5,39.5 29.5,29.5 39.5,29.5 39.5,19.5 49.5,19.5 49.5,9.5 59.5,9.5 
	59.5,-0.5 79.5,-0.5 79.5,19.5 69.5,19.5 69.5,29.5 59.5,29.5 59.5,39.5 49.5,39.5 49.5,49.5 39.5,49.5 39.5,59.5 29.5,59.5 
	29.5,69.5 19.5,69.5 19.521,79.5 -0.5,79.5 -0.5,59.5 "/>
</svg>
