<?xml version="1.0" encoding="utf-8"?>
<!-- Generator: Adobe Illustrator 13.0.0, SVG Export Plug-In . SVG Version: 6.00 Build 14948)  -->
<!DOCTYPE svg PUBLIC "-//W3C//DTD SVG 1.1//EN" "http://www.w3.org/Graphics/SVG/1.1/DTD/svg11.dtd">
<svg version="1.1" id="Layer_1" xmlns="http://www.w3.org/2000/svg" xmlns:xlink="http://www.w3.org/1999/xlink" x="0px" y="0px"
	 width="80px" height="80px" viewBox="0 0 80 80" enable-background="new 0 0 80 80" xml:space="preserve">
<polygon points="59.993,70.095 50,70.095 50,59.913 39.931,59.914 39.951,50.166 29.983,50.166 29.983,40 19.908,40 19.908,30 
	9.94,30 9.94,19.937 0,19.937 0,0 19.908,0 19.908,9.969 29.983,9.969 29.983,19.937 39.951,19.937 39.951,30 50,30 50,40 
	59.991,39.965 59.993,50.166 69.962,50.166 69.962,59.913 80,59.913 80,80 59.993,80 "/>
</svg>
